<?xml version="1.0" encoding="UTF-8" standalone="no"?>
<svg xmlns:rdf="http://www.w3.org/1999/02/22-rdf-syntax-ns#" xmlns="http://www.w3.org/2000/svg" height="501px" width="236px" xmlns:cc="http://creativecommons.org/ns#" xmlns:xlink="http://www.w3.org/1999/xlink" xmlns:dc="http://purl.org/dc/elements/1.1/">
<title>Zostera noltii</title>
<desc xmlns:ian_image_library="http://ian.umces.edu/imagelibrary/">
      <ian_image_library:title>Zostera noltii</ian_image_library:title>
      <ian_image_library:descr>Illustration of Zostera noltii</ian_image_library:descr>
      <ian_image_library:scene>
		<ian_image_library:contains>symbol,vector,illustration,seagrass,SAV,Plantae,vascular,Magnoliophyta,angiosperm,flowering plant,Liliopsida,monocot,Alismatidae,Najadales,Zosteraceae,eel-grass,family,Zostera,noltii,2012 seagrass calendar</ian_image_library:contains>
        <ian_image_library:when>2005-03-14</ian_image_library:when> 
	  </ian_image_library:scene>
   </desc>
    <metadata
		id="metadata-iil-e728932d68053a245d881aac377e7b0a">
      <rdf:RDF>
      <cc:Work
         rdf:about="">
        <dc:format>image/svg+xml</dc:format>
        <dc:type
           rdf:resource="http://purl.org/dc/dcmitype/StillImage" />
        <cc:license
           rdf:resource="http://creativecommons.org/licenses/by-sa/3.0/" />
        <dc:title>Zostera noltii</dc:title>
		<dc:date>2005-03-14</dc:date>
        <dc:creator>
			<cc:Agent>
				<dc:title>Tracey Saxby</dc:title>
			</cc:Agent>	
		</dc:creator>   
		<dc:rights>
          <cc:Agent>
            <dc:title>Tracey Saxby, Integration and Application Network</dc:title>
          </cc:Agent>
        </dc:rights>
        <dc:publisher>
          <cc:Agent>
            <dc:title>Integration and Application Network</dc:title>
          </cc:Agent>
        </dc:publisher>
		<dc:identifier>http://ian.umces.edu/imagelibrary/displayimage-4820.html</dc:identifier>
        <dc:source>http://ian.umces.edu/imagelibrary/displayimage-4820.html</dc:source>
        <dc:language>en-US</dc:language>
        <dc:subject>
          <rdf:Bag>
            <rdf:li>symbol,vector,illustration,seagrass,SAV,Plantae,vascular,Magnoliophyta,angiosperm,flowering plant,Liliopsida,monocot,Alismatidae,Najadales,Zosteraceae,eel-grass,family,Zostera,noltii,2012 seagrass calendar</rdf:li>
          </rdf:Bag>
        </dc:subject>
        <dc:coverage></dc:coverage>
        <dc:description>Illustration of Zostera noltii</dc:description>
        <dc:contributor>
          <cc:Agent>
            <dc:title></dc:title>
          </cc:Agent>
        </dc:contributor>
      </cc:Work>
      <cc:License
         rdf:about="http://creativecommons.org/licenses/by-sa/3.0/">
        <cc:permits
           rdf:resource="http://creativecommons.org/ns#Reproduction" />
        <cc:permits
           rdf:resource="http://creativecommons.org/ns#Distribution" />
        <cc:requires
           rdf:resource="http://creativecommons.org/ns#Notice" />
        <cc:requires
           rdf:resource="http://creativecommons.org/ns#Attribution" />
        <cc:permits
           rdf:resource="http://creativecommons.org/ns#DerivativeWorks" />
        <cc:requires
           rdf:resource="http://creativecommons.org/ns#ShareAlike" />
      </cc:License>
    </rdf:RDF>
  </metadata>
	
 <defs></defs>
 <linearGradient id="ian_symbols_ef8e70b6605ae9f4f5b1e99eb9174a56" y2="398.92" gradientUnits="userSpaceOnUse" x2="141.03" y1="68.689" x1="141.03">
  <stop stop-color="#759162" offset="0"/>
  <stop stop-color="#607D40" offset="1"/>
 </linearGradient>
 <path stroke="#304337" stroke-width=".8939" d="m109.12 74.645c-.383 4.764 3.642 28.574 9.318 44.522 5.677 15.943 36.467 81.527 39.02 88.48 2.58 6.967 2.211 9.17 3.863 14.847 1.652 5.684 4.582 12.637 4.4 26.927-.201 14.296-13.759 67.055-18.677 79.134-4.958 12.106-7.706 20.344-9.358 27.491-1.653 7.148-1.115 14.298.558 21.983 1.653 7.699 10.984 20.887 10.984 20.887l3.299-3.292s-14.283-24.18-9.883-34.62c4.4-10.446 7.135-21.088 14.283-39.584 7.128-18.508 15.203-59.907 15.936-74.754.726-14.827-2.942-17.756-8.808-37.367-5.845-19.61-36.642-82.984-41.754-95.084-5.139-12.086-8.787-38.845-10.44-43.427-1.64-4.596-2.4-.935-2.74 3.842z" fill="url(#ian_symbols_ef8e70b6605ae9f4f5b1e99eb9174a56)"/>
 <linearGradient id="ian_symbols_080fe505bb7fed2459e5c6922406dd1f" y2="341.22" gradientUnits="userSpaceOnUse" x2="51.386" y1="182.54" x1="51.386">
  <stop stop-color="#8C9B82" offset="0"/>
  <stop stop-color="#8C9146" offset=".4831"/>
  <stop stop-color="#759162" offset="1"/>
 </linearGradient>
 <path stroke="#304337" stroke-width=".8939" d="m31.616 186.76c-.182-2.566.202-5.865 3.285-3.286 3.111 2.56 5.698 9.52 6.604 14.276.9 4.77 1.659 16.487 1.659 29.688 0 13.188 10.608 33.343 13.726 48.916 3.117 15.566 14.303 64.866 14.303 64.866l-8.794-15.95s-8.982-22.358-9.903-37.917c-.914-15.58-10.804-40.122-12.644-53.868-1.841-13.739-3.641-30.219-3.836-34.626-.188-4.39-4.199-9.53-4.4-12.1z" fill="url(#ian_symbols_080fe505bb7fed2459e5c6922406dd1f)"/>
 <linearGradient id="ian_symbols_1c0d002ae6bc3214b1fc752e0f68a0bc" y2="349.05" gradientUnits="userSpaceOnUse" x2="95.386" y1="52.897" x1="95.386">
  <stop stop-color="#889250" offset="0"/>
  <stop stop-color="#759162" offset=".8989"/>
 </linearGradient>
 <path stroke="#304337" stroke-width=".8939" d="m63.763 57.762c.732-3.668 4.031-5.879 6.221-4.4 2.21 1.472.356 45.066 8.062 63.763 7.706 18.677 24.172 54.21 24.172 54.21s11.73 29.326 16.5 46.921c4.763 17.575 8.075 30.777 8.075 52.403 0 21.606 1.465 28.197-.746 42.863-2.19 14.653-6.584 35.533-6.584 35.533l-4.051-8.418s7.706-40.303 5.509-71.819c-2.204-31.516-8.781-46.907-14.659-68.89-5.852-21.976-18.697-43.608-26.02-59.35-7.336-15.774-9.144-22.728-12.825-38.838-3.662-16.111-4.408-40.297-3.662-43.958z" fill="url(#ian_symbols_1c0d002ae6bc3214b1fc752e0f68a0bc)"/>
 <linearGradient id="ian_symbols_31a3fb930496c8d41935a77391167258" y2="352" gradientUnits="userSpaceOnUse" x2="176.15" y1="196.26" x1="176.15">
  <stop stop-color="#8C9B82" offset="0"/>
  <stop stop-color="#759162" offset=".5787"/>
  <stop stop-color="#607D40" offset="1"/>
 </linearGradient>
 <path stroke="#304337" stroke-width=".8939" d="m226.43 196.98c-4.736 2.197-45.053 36.655-67.049 67.432-21.976 30.776-25.268 37.73-31.872 49.836-6.591 12.086-9.527 22.352-9.527 22.352v15.392s8.425-23.091 15.385-35.923c6.967-12.812 26.759-45.066 51.664-73.276 24.932-28.21 48.009-41.761 49.104-43.232 1.11-1.47-2.92-4.76-7.69-2.58z" fill="url(#ian_symbols_31a3fb930496c8d41935a77391167258)"/>
 <linearGradient id="ian_symbols_2ad1a43a04b74424f151ac357eb1ff80" y2="408.81" gradientUnits="userSpaceOnUse" x2="44.332" y1="82.141" x1="44.332">
  <stop stop-color="#759162" offset="0"/>
  <stop stop-color="#64795D" offset="1"/>
 </linearGradient>
 <path stroke="#304337" stroke-width=".8939" d="m1.934 89.479c-3.494-3.85-.188-9.352 3.306-6.591 3.459 2.741 8.23 15.197 10.978 24.737 2.755 9.513 3.487 30.77 2.204 46.161-1.276 15.393-7.135 38.476-6.61 61.009.571 22.533 8.982 38.294 15.405 51.664 6.402 13.383 25.462 41.237 35.184 54.962 9.701 13.739 12.63 23.636 15.378 30.783 2.748 7.148 6.423 15.95 8.237 25.826 1.834 9.89 2.204 26.934 2.204 26.934l-3.843 3.843s-.558-15.009-4.401-30.776c-3.843-15.748-9.338-30.777-19.234-46.726-9.889-15.93-25.65-39.007-34.082-54.95-8.427-15.9-19.055-37.53-21.42-54.93-2.398-17.414 5.657-55.52 6.571-69.816.934-14.283-1.263-37.367-1.64-42.863-.356-5.5-4.756-15.391-8.237-19.241z" fill="url(#ian_symbols_2ad1a43a04b74424f151ac357eb1ff80)"/>
 <linearGradient id="ian_symbols_dd2a83dfd85c9ce49d784e95776ee7b7" y2="412.67" gradientUnits="userSpaceOnUse" x2="67.877" y1=".4473" x1="67.877">
  <stop stop-color="#8C9B82" offset="0"/>
  <stop stop-color="#759162" offset=".5787"/>
  <stop stop-color="#607D40" offset="1"/>
 </linearGradient>
 <path stroke="#304337" stroke-width=".8939" d="m83.266 412.67s-1.995-8.264-3.85-17.044c-1.814-8.795-9.875-33.343-6.604-80.25 3.319-46.9-8.405-84.637-8.774-102.22-.363-17.595-15.002-70.368-15.385-90.14-.376-19.798 4.024-54.606 9.345-78.604 5.315-24.001 15.204-44.149 19.779-43.968 4.582.174 3.843 3.843 1.639 6.046-2.197 2.19-23.077 37.367-25.274 117.07 3.298 26.188 13.564 68.332 15.929 90.133 2.398 21.808 8.264 37.199 8.264 53.861 0 16.681 1.082 77.872 1.082 88.493 0 10.629 7.706 53.875 7.706 53.875l-3.857 2.75z" fill="url(#ian_symbols_dd2a83dfd85c9ce49d784e95776ee7b7)"/>
 <linearGradient id="ian_symbols_844d51eebe678cd499736c76177edf78" y2="407.16" gradientUnits="userSpaceOnUse" x2="67.818" y1="80.091" x1="67.818">
  <stop stop-color="#8C9B82" offset="0"/>
  <stop stop-color="#8C9146" offset=".4831"/>
  <stop stop-color="#759162" offset="1"/>
 </linearGradient>
 <path stroke="#304337" stroke-width=".8939" d="m100.86 407.16c-1.283-.175-5.314-47.444-9.896-74.74-4.582-27.297-14.834-71.282-26.927-97.839-12.08-26.558-20.162-49.279-28.58-73.646-8.425-24.368-5.119-74.56-4.401-79.142.759-4.588 5.489 1.277 4.958 3.836-.558 2.56-3.494 45.066 5.489 75.306 8.989 30.226 32.06 82.984 37.911 94.533 5.879 11.535 17.595 68.346 19.786 87.949 2.217 19.598 6.618 57.152 6.618 57.152s-3.69 6.78-4.96 6.6z" fill="url(#ian_symbols_844d51eebe678cd499736c76177edf78)"/>
 <linearGradient id="ian_symbols_78b7437540fc1f346521a01359f92ce1" y2="413.68" gradientUnits="userSpaceOnUse" x2="103.86" y1="12.235" x1="103.86">
  <stop stop-color="#8C9B82" offset="0"/>
  <stop stop-color="#759162" offset=".5787"/>
  <stop stop-color="#607D40" offset="1"/>
 </linearGradient>
 <path stroke="#304337" stroke-width=".8939" d="m109.74 410.38s6.416-24.368 6.618-42.313c.181-17.958-9.359-57.717-9.359-57.717s-17.219-78.604-18.677-98.934c-1.471-20.343-3.305-77.489-1.646-97.838 1.646-20.336 13.363-57.348 14.834-70.354 1.465-12.993-.766-22.896 0-28.029.712-5.119 4.757-2.573 6.584 0 1.841 2.567.37 17.589-1.095 25.288-1.471 7.699-10.984 52.221-10.984 52.221s-5.139 25.1-5.516 39.02c-.343 13.921 1.834 61.916 4.4 82.985 2.573 21.075 9.17 51.126 12.664 69.796 3.46 18.697 7.86 42.506 12.08 64.872 4.219 22.352.914 28.203-.551 39.571-1.458 11.36-6.598 24.729-6.598 24.729l-2.75-3.31z" fill="url(#ian_symbols_78b7437540fc1f346521a01359f92ce1)"/>
 <linearGradient id="ian_symbols_d17f960c6a402f249dbbffb763883999" y2="400.94" gradientUnits="userSpaceOnUse" x2="91.128" y1="57.027" x1="91.128">
  <stop stop-color="#A5A17C" offset="0"/>
  <stop stop-color="#68844B" offset="1"/>
 </linearGradient>
 <path stroke="#304337" stroke-width=".8939" d="m148.47 397.17c-2.352-3.749-7.847-39.665-17.367-61.467-9.533-21.787-21.976-52.208-31.898-63.75-9.896-11.529-24.172-55.883-25.825-74.748-1.646-18.865-5.308-41.962-6.577-57.717-1.303-15.741-16.306-38.838-21.472-47.814-5.099-8.959-15.728-30.935-15.365-33.514.376-2.56 5.126-.37 6.584 2.754 1.464 3.11 8.075 19.221 12.664 24.723 4.562 5.502 19.954 38.12 21.982 48.372 2.009 10.259 6.766 73.646 15.372 94.533 8.613 20.887 28.761 54.962 33.544 65.416 4.763 10.427 17.199 36.81 20.88 49.467 3.655 12.63 10.978 45.06 10.978 45.06s.752 9.715 0 11.536c-.72 1.84-1.17.93-3.5-2.85z" fill="url(#ian_symbols_d17f960c6a402f249dbbffb763883999)"/>
 <linearGradient id="ian_symbols_c40d7ba9962de224490f494b75098b50" y2="398.92" gradientUnits="userSpaceOnUse" x2="141.19" y1="197.51" x1="141.19">
  <stop stop-color="#759162" offset="0"/>
  <stop stop-color="#607D40" offset="1"/>
 </linearGradient>
 <path stroke="#304337" stroke-width=".8939" d="m132.74 199.4c1.29-3.843 7.162-1.27 5.509 2.748-1.673 4.038-3.507 49.474-2.21 64.852 1.27 15.398 10.434 50.206 11.542 65.417 1.109 15.202 4.952 63.205 4.952 63.205l-3.299 3.292s-6.409-61.566-8.801-78.04c-2.378-16.5-9.702-38.476-10.447-55.513-.72-17.03 1.48-62.09 2.76-65.96z" fill="url(#ian_symbols_c40d7ba9962de224490f494b75098b50)"/>
 <linearGradient id="ian_symbols_0d6f6e815acb44d4e9bf0d85dddc6af3" y2="400.95" gradientUnits="userSpaceOnUse" x2="150.54" y1="48.089" x1="150.54">
  <stop stop-color="#8C9B82" offset="0"/>
  <stop stop-color="#759162" offset=".5787"/>
  <stop stop-color="#607D40" offset="1"/>
 </linearGradient>
 <path stroke="#304337" stroke-width=".8939" d="m134.39 56.889c-2.19-5.133 1.465-11.361 3.306-7.7 1.827 3.668 16.85 39.578 20.323 54.956 3.507 15.385 7.147 41.788 6.046 63.764-1.082 21.976-10.245 54.237-12.61 73.646-2.412 19.436 2.365 45.812 7.128 57.717 4.757 11.912 8.802 23.635 8.802 36.83 0 13.188-14.848 61.554-14.848 61.554l-4.952 3.299s14.639-55.325 14.296-64.853c-.355-9.526-6.228-21.633-11.562-37.925-5.301-16.305-7.128-49.299-5.482-64.314 1.639-15.016 14.841-34.082 14.841-72 0-37.932-4.764-51.113-8.224-62.111-3.53-10.992-14.89-37.744-17.08-42.87z" fill="url(#ian_symbols_0d6f6e815acb44d4e9bf0d85dddc6af3)"/>
 <linearGradient id="ian_symbols_5e39122b1fca807431de8a431d233f9e" y2="439.96" gradientUnits="userSpaceOnUse" x2="142.15" y1="439.96" x1="128.87">
  <stop stop-color="#847864" offset=".118"/>
  <stop stop-color="#5E5A36" offset="1"/>
 </linearGradient>
 <path stroke="#655A2C" stroke-width=".8939" d="m129.84 450.96c-.678.497-1.37-6.564-.678-8.176.678-1.619 5.905-3.636 6.134-4.857.215-1.203-1.156-4.031-.35-5.14.773-1.108 6.463-4.75 7.148-3.635.679 1.108-4.548 3.339-5.099 4.535-.571 1.216-.121 3.245-1.035 5.159-.894 1.915-4.535 2.923-5.442 4.535-.90 1.61 0 7.07-.68 7.58z" fill="url(#ian_symbols_5e39122b1fca807431de8a431d233f9e)"/>
 <linearGradient id="ian_symbols_4a49220d004725942dc45381c2a46c5d" y2="451.44" gradientUnits="userSpaceOnUse" x2="70.049" y1="480.51" x1="70.049">
  <stop stop-color="#847864" offset=".118"/>
  <stop stop-color="#5E5A36" offset="1"/>
 </linearGradient>
 <path stroke="#655A2C" stroke-width=".8939" d="m75.863 480.48c.712.651 1.397-8.653.712-10.783-.712-2.123-6.06-4.797-6.295-6.389-.235-1.593 1.156-5.321.356-6.792-.819-1.465-6.638-6.262-7.33-4.805-.712 1.465 4.663 4.395 5.227 5.993.591 1.612.107 4.272 1.062 6.799.92 2.533 4.635 3.863 5.583 5.986.926 2.12-.001 9.3.685 9.98z" fill="url(#ian_symbols_4a49220d004725942dc45381c2a46c5d)"/>
 <linearGradient id="ian_symbols_dc6c96abd365bec451760427762f3322" y2="428.8" gradientUnits="userSpaceOnUse" x2="147.82" y1="469.77" x1="147.82">
  <stop stop-color="#847864" offset=".118"/>
  <stop stop-color="#5E5A36" offset="1"/>
 </linearGradient>
 <path stroke="#655A2C" stroke-width=".8939" d="m140.53 429.3s10.077-1.316 11.502.31c1.431 1.625 1.76 8.089 1.242 10.413-.497 2.312 4.71 6.866 4.273 8.835-.424 1.954-2.66 11.972-3.574 12.146-.927.168 1.727-13.142.719-13.355-.968-.216-2.613-3.575-3.265-5.234-.686-1.64.504-7.001-.336-8.512-.874-1.505-8.849-.282-8.849-.282s4.569 2.137 5.758 4.104c1.202 1.955-.121 3.903.518 5.738.625 1.827 2.821 2.68 2.868 5.152.061 2.438-1.048 5.952-1.86 6.335-.84.377.154-5.407-.263-6.818-.45-1.424-2.499-1.492-2.801-3.44-.316-1.941 1.223-5.663-.806-6.354-2.056-.727-5.536-1.236-5.536-1.236s.471 9.305 1.74 12.207c1.29 2.915 4.212 5.811 4.28 8.841.06 3.01-2.479 11.831-3.454 11.609-1.014-.215 2.21-6.645 2.13-9.668-.074-3.01-3.191-3.708-4.642-7.222-1.431-3.507-1.72-12.201-1.72-12.201s-.235-4.931-.39-6.281c-.13-1.36 2.47-5.1 2.47-5.1z" fill="url(#ian_symbols_dc6c96abd365bec451760427762f3322)"/>
 <linearGradient id="ian_symbols_ba420973c2d74bb4519e49940c045e74" y2="429.05" gradientUnits="userSpaceOnUse" x2="145.82" y1="471.4" x1="145.82">
  <stop stop-color="#847864" offset=".118"/>
  <stop stop-color="#5E5A36" offset="1"/>
 </linearGradient>
 <path stroke="#655A2C" stroke-width=".8939" d="m147.23 471.34c.645 1.062 4.279-11.253 4.058-14.296-.208-3.063-5.919-8.082-5.717-10.3.195-2.21 2.997-6.832 2.432-9.016-.558-2.184-6.201-10.191-7.471-8.425-1.283 1.787 4.34 7.155 4.568 9.467.242 2.297-1.122 5.743-.752 9.392.37 3.661 4.501 6.457 5.012 9.567.50 3.1-2.78 12.52-2.13 13.61z" fill="url(#ian_symbols_ba420973c2d74bb4519e49940c045e74)"/>
 <linearGradient id="ian_symbols_a71dff9f79ccec74519a8f60757f6311" y2="442.58" gradientUnits="userSpaceOnUse" x2="73.607" y1="499.55" x1="73.607">
  <stop stop-color="#847864" offset=".118"/>
  <stop stop-color="#5E5A36" offset="1"/>
 </linearGradient>
 <path stroke="#655A2C" stroke-width=".8939" d="m62.399 446.2s-.558 6.228.531 13.181c1.108 6.96 4.4 16.131 6.053 17.589 1.653 1.464 4.952 1.088 4.394 3.862-.564 2.742-2.365 4.199-2.741 6.026-.363 1.842 6.584 6.241 4.394 7.706-2.217 1.458-3.675 4.401-2.217 4.938 1.485.558 5.522-3.104 5.522-6.047 0-2.936-4.77-5.14-4.4-7.148.363-2.009 2.936-3.467 2.748-6.039-.188-2.561-3.87-4.031-6.611-7.68-2.741-3.668-5.294-11.75-5.489-13.208-.175-1.465-.907-6.221 1.66-6.046 2.56.201 12.449 2.391 12.093 4.4-.376 2.016-2.58 8.243-2.204 9.896.363 1.646 2.56 4.213 3.285 6.047.732 1.834-.356 1.834-.564 3.292-.162 1.464 3.876 1.834 3.325 5.495-.558 3.662-1.652 5.133-1.652 7.148 0 2.029 2.204 3.486 3.292 3.843 1.108.369.383-1.813-.551-3.843-.907-2.016 2.029-5.677 1.66-8.229-.376-2.58-5.133-10.648-5.509-13.201-.356-2.561.376-8.432.558-10.992.551-4.763-13.013-5.864-9.338-12.093 3.659-6.24-8.239 1.1-8.239 1.1z" fill="url(#ian_symbols_a71dff9f79ccec74519a8f60757f6311)"/>
 <linearGradient id="ian_symbols_f6dcb4c8457889b4b5222ce098224e0f" y2="441.66" gradientUnits="userSpaceOnUse" x2="92.315" y1="481.94" x1="92.315">
  <stop stop-color="#847864" offset=".118"/>
  <stop stop-color="#5E5A36" offset="1"/>
 </linearGradient>
 <path stroke="#655A2C" stroke-width=".8939" d="m101.04 444.22s.437 4.407-.423 9.332c-.84 4.911-3.413 11.388-4.689 12.422-1.276 1.041-3.87.772-3.419 2.721.43 1.941 1.848 2.97 2.143 4.273.262 1.296-5.14 4.4-3.426 5.441 1.713 1.035 2.842 3.124 1.713 3.486-1.156.41-4.28-2.196-4.28-4.259 0-2.069 3.695-3.635 3.399-5.053-.275-1.424-2.25-2.473-2.123-4.279.148-1.813 3.003-2.842 5.133-5.435 2.137-2.594 4.132-8.298 4.26-9.318.154-1.049.732-4.414-1.277-4.28-1.982.128-9.681 1.687-9.392 3.111.269 1.424 1.982 5.824 1.707 6.993-.282 1.155-1.995 2.963-2.566 4.267-.558 1.297.295 1.297.423 2.331.148 1.041-2.99 1.29-2.553 3.896.417 2.573 1.283 3.628 1.283 5.046 0 1.417-1.72 2.452-2.573 2.721-.867.262-.276-1.304.43-2.721.712-1.418-1.585-4.018-1.296-5.825.302-1.827 3.997-7.524 4.286-9.325.295-1.82-.289-5.959-.43-7.773-.417-3.365 10.125-4.138 7.283-8.552-2.878-4.41 6.384.78 6.384.78z" fill="url(#ian_symbols_f6dcb4c8457889b4b5222ce098224e0f)"/>
 <linearGradient id="ian_symbols_d0215187880491f425eec26891cde75a" y2="439.59" gradientUnits="userSpaceOnUse" x2="119.44" y1="471.5" x1="119.44">
  <stop stop-color="#847864" offset=".118"/>
  <stop stop-color="#5E5A36" offset="1"/>
 </linearGradient>
 <path stroke="#655A2C" stroke-width=".8939" d="m109.12 439.59s2.922 5.858 2.184 8.25c-.726 2.378-2.184 6.779 0 6.591 2.21-.188 4.763-3.11 8.801-2.755 4.011.376 9.513 3.668 10.991 7.148 1.465 3.5 2.929 11.905 1.095 12.644s-2.21-10.991-4.394-12.644c-2.21-1.64-4.031-3.836-7.692-4.394-3.675-.545-6.248 1.646-8.243 3.299-2.029 1.646-5.67-2.01-5.516-3.844.174-1.834 1.303-4.399 1.652-6.604.363-2.19-2.183-6.04-2.183-6.04l3.31-1.67z" fill="url(#ian_symbols_d0215187880491f425eec26891cde75a)"/>
 <linearGradient id="ian_symbols_71ea834f0b708e741102101d4c0a97eb" y2="440.59" gradientUnits="userSpaceOnUse" x2="120.47" y1="492.37" x1="120.47">
  <stop stop-color="#847864" offset=".118"/>
  <stop stop-color="#5E5A36" offset="1"/>
 </linearGradient>
 <path stroke="#655A2C" stroke-width=".8939" d="m100.68 443.07s.356 18.878 3.85 22.546c3.473 3.642 2.741.719 4.4 2.184 1.653 1.458 3.474 9.164 6.046 13.745 2.573 4.576 9.157 2.386 10.427 3.844 1.304 1.464 3.856 6.785 6.437 6.967 2.546.182 8.411-2.19 8.411-3.661 0-1.465-5.865 1.82-8.794 0-2.929-1.842-1.471-5.51-4.938-6.598-3.48-1.103-7.504 1.088-9.352-2.573-2.909-5.839-5.12-12.818-6.584-14.465-1.458-1.652-2.217 2.741-5.516-3.292-3.272-6.054-1.465-19.61-2.184-20.9-.77-1.28-2.22 2.2-2.22 2.2z" fill="url(#ian_symbols_71ea834f0b708e741102101d4c0a97eb)"/>
 <linearGradient id="ian_symbols_b98559b0a94b0fe4cd6830e10dad36cc" y2="454.81" gradientUnits="userSpaceOnUse" x2="55.84" y1="476.84" x1="55.84">
  <stop stop-color="#847864" offset=".118"/>
  <stop stop-color="#5E5A36" offset="1"/>
 </linearGradient>
 <path stroke="#655A2C" stroke-width=".8939" d="m60.948 476.81c.598.504 1.216-6.558.598-8.184-.598-1.599-5.301-3.621-5.509-4.837-.208-1.209 1.014-4.031.302-5.14-.712-1.108-5.798-4.736-6.409-3.642-.598 1.115 4.071 3.34 4.582 4.542.511 1.223.094 3.231.914 5.153.819 1.914 4.098 2.922 4.897 4.541 0.8 1.61 0 7.07.625 7.57z" fill="url(#ian_symbols_b98559b0a94b0fe4cd6830e10dad36cc)"/>
 <linearGradient id="ian_symbols_246c2b4d0a148d24fd518bcae80f2d39" y2="464.4" gradientUnits="userSpaceOnUse" x2="54.062" y1="487.59" x1="54.062">
  <stop stop-color="#847864" offset=".118"/>
  <stop stop-color="#5E5A36" offset="1"/>
 </linearGradient>
 <path stroke="#655A2C" stroke-width=".8939" d="m44.569 465.36s9.621-1.519 11.334-.719c1.713.779 3.305 4.34 3.245 5.664-.067 1.316 5.946 3.426 5.899 4.561-.054 1.122-.316 6.847-1.176 7.001-.894.168-.854-7.41-1.861-7.451-1.008-.046-3.272-1.767-4.226-2.64-.994-.847-.86-3.931-1.982-4.689-1.128-.766-8.721.544-8.721.544s4.885.826 6.45 1.808c1.559.994.618 2.184 1.599 3.15.974.968 3.252 1.264 3.803 2.614.531 1.35.141 3.392-.604 3.668-.726.275-.887-3.01-1.579-3.756-.706-.745-2.728-.632-3.393-1.673-.686-1.082.114-3.245-2.036-3.479-2.13-.235-5.644-.235-5.644-.235s2.251 5.105 4.052 6.61c1.834 1.532 5.26 2.902 5.905 4.575.665 1.66-.161 6.745-1.155 6.685-1.015-.04.88-3.836.235-5.495-.658-1.68-3.836-1.808-5.932-3.648-2.096-1.834-4.058-6.631-4.058-6.631s-1.189-2.715-1.586-3.434c-.416-.72 1.431-3.01 1.431-3.01z" fill="url(#ian_symbols_246c2b4d0a148d24fd518bcae80f2d39)"/>
 <linearGradient id="ian_symbols_a9eacce3728422f45997f5c2fafb7da6" y2="474.9" gradientUnits="userSpaceOnUse" x2="42.697" y1="474.9" x1="14.572">
  <stop stop-color="#847864" offset=".118"/>
  <stop stop-color="#5E5A36" offset="1"/>
 </linearGradient>
 <path stroke="#655A2C" stroke-width=".8939" d="m40.947 456.63s-12.072-3.474-14.29-2.197c-2.184 1.289-4.4 7.518-4.4 9.896 0 2.379-7.686 5.678-7.686 7.706 0 2.009 0 12.261 1.115 12.631 1.088.362 1.458-13.195 2.734-13.195 1.284 0 4.212-2.929 5.502-4.387 1.277-1.465 1.277-6.96 2.734-8.257 1.458-1.27 11.012 1.652 11.012 1.652s-6.235 1.103-8.264 2.748c-1.988 1.653-.899 3.856-2.189 5.496-1.277 1.652-4.206 2.009-4.958 4.4-.713 2.385-.363 6.053.557 6.59.914.552 1.297-5.313 2.204-6.59.92-1.283 3.487-.914 4.387-2.748.935-1.834.041-5.791 2.742-6.047 2.721-.248 7.141 0 7.141 0s-3.077 8.969-5.482 11.536c-2.372 2.565-6.772 4.77-7.699 7.706-.907 2.935-.168 12.079 1.109 12.079 1.29 0-.92-6.953 0-9.89.9-2.923 4.931-2.923 7.685-6.047 2.769-3.117 5.509-11.534 5.509-11.534s1.653-4.771 2.197-6.054c.558-1.31-1.66-5.51-1.66-5.51z" fill="url(#ian_symbols_a9eacce3728422f45997f5c2fafb7da6)"/>
 <linearGradient id="ian_symbols_bf95cc3cf0fd5a04a561c07f735b41fc" y2="476.25" gradientUnits="userSpaceOnUse" x2="41.049" y1="476.25" x1="19.624">
  <stop stop-color="#847864" offset=".118"/>
  <stop stop-color="#5E5A36" offset="1"/>
 </linearGradient>
 <path stroke="#655A2C" stroke-width=".8939" d="m21.175 496.21c-1.088.899-2.203-11.912-1.088-14.827 1.088-2.95 9.513-6.604 9.876-8.795.376-2.21-1.848-7.336-.558-9.358 1.283-2.016 10.447-8.605 11.542-6.597 1.116 2.021-7.33 6.039-8.243 8.25-.887 2.203-.182 5.852-1.646 9.352-1.458 3.473-7.33 5.294-8.8 8.229-1.465 2.94 0 12.84-1.083 13.76z" fill="url(#ian_symbols_bf95cc3cf0fd5a04a561c07f735b41fc)"/>
 <linearGradient id="ian_symbols_b7cff0137271a46445e8b8a72edbce7f" y2="491.23" gradientUnits="userSpaceOnUse" x2="101.06" y1="396.14" x1="101.06">
  <stop stop-color="#9B7D3E" offset="0"/>
  <stop stop-color="#7F6F2D" offset=".309"/>
  <stop stop-color="#847864" offset=".5506"/>
  <stop stop-color="#5E5A36" offset=".8989"/>
 </linearGradient>
 <path stroke="#655A2C" stroke-width=".8939" d="m53.121 491.22c-2.721.263-5.489-3.339-8.042-5.898-2.512-2.573-9.002-16.957-7.995-21.243.995-4.307 5.791-10.595 10.481-14.808 4.696-4.212 12.261-5.784 17.891-8.626 5.63-2.862 8.082-7.9 10.145-13.592 2.036-5.677 4.925-10.003 5.899-14.175.954-4.179 5.596-9.789 6.154-9.876.578-.074 2.103 11.63.907 12.952-1.209 1.324-7.37 12.671-6.457 12.954.9.289 8.915-4.475 8.646-2.466-.295 2.035-11.26 11.958-9.876 12.945 4.568 3.245 10.622-2.525 11.999-4.648 1.371-2.13 8.075-21.633 7.128-24.952-.947-3.325 6-14.687 6.503-13.571.517 1.108-4.709 33.067-4.051 33.31.699.249 8.035-23.756 8.646-24.059.625-.302 1.78 8.009 1.841 9.252.081 1.242-4.374 16.036-3.077 16.654.322.154 1.981 2.096 4.34 1.572 2.23-.478 5.106-3.628 8.035-4.717 2.452-.934 4.736-.631 7.007-1.263 3.775-1.048 7.021-2.835 7.773-3.614 2.291-2.345 9.634-24.791 11.448-26.181 1.8-1.371 3.957-.303 4.588 1.511.605 1.827-8.297 23.75-7.679 24.065.584.309 5.791-2.829 8.908-2.473s9.668 1.276 10.487 2.19c.827.92.383 5.979-2.479 6.101-2.862.127-12.188-1.002-16.648-.27-4.461.727-40.478 15.627-49.964 16.648-9.513 1.027-30.36 3.628-35.795 4.931-5.402 1.331-8.096 4.173-10.467 7.411-2.392 3.244-5.718 6.295-4.34 11.111 1.393 4.82 12.579 22.52 8.037 22.83z" fill="url(#ian_symbols_b7cff0137271a46445e8b8a72edbce7f)"/>
 <linearGradient id="ian_symbols_7cb6f1dfd1f5088429399100f86c56e4" y2="456.79" gradientUnits="userSpaceOnUse" x2="120.2" y1="478.82" x1="120.2">
  <stop stop-color="#847864" offset=".118"/>
  <stop stop-color="#5E5A36" offset="1"/>
 </linearGradient>
 <path stroke="#655A2C" stroke-width=".8939" d="m127.88 478.8c.914.497 1.841-6.571.914-8.17-.914-1.618-7.968-3.634-8.284-4.844-.295-1.209 1.539-4.044.47-5.159-1.075-1.096-8.747-4.73-9.667-3.628-.914 1.115 6.127 3.339 6.886 4.541.786 1.21.168 3.238 1.384 5.146 1.243 1.922 6.147 2.923 7.356 4.541 1.24 1.62 0 7.06.94 7.57z" fill="url(#ian_symbols_7cb6f1dfd1f5088429399100f86c56e4)"/>
 <linearGradient id="ian_symbols_ac105d4aeb49dfa4a557698567f81f81" y2="482.63" gradientUnits="userSpaceOnUse" x2="42.113" y1="482.63" x1="35.854">
  <stop stop-color="#847864" offset=".118"/>
  <stop stop-color="#5E5A36" offset="1"/>
 </linearGradient>
 <path stroke="#655A2C" stroke-width=".8939" d="m37.105 492.36c-1.982-1.492-1.324-4.085 0-8.243 1.33-4.159 2.183-13.188 2.183-13.188l2.217 6.04s-4.455 9.627-3.836 12.093c.591 2.466 4.958 4.037 4.394 4.952-.584.90-2.977-.15-4.958-1.65z" fill="url(#ian_symbols_ac105d4aeb49dfa4a557698567f81f81)"/>
</svg>
